<svg id="visual" viewBox="0 0 900 600" width="900" height="600" xmlns="http://www.w3.org/2000/svg" xmlns:xlink="http://www.w3.org/1999/xlink" version="1.1"><path d="M0 453L15 454.7C30 456.3 60 459.7 90 467.8C120 476 150 489 180 493.2C210 497.3 240 492.7 270 476.3C300 460 330 432 360 416.3C390 400.7 420 397.3 450 413.5C480 429.7 510 465.3 540 480.5C570 495.7 600 490.3 630 471.7C660 453 690 421 720 418C750 415 780 441 810 453.8C840 466.7 870 466.3 885 466.2L900 466L900 601L885 601C870 601 840 601 810 601C780 601 750 601 720 601C690 601 660 601 630 601C600 601 570 601 540 601C510 601 480 601 450 601C420 601 390 601 360 601C330 601 300 601 270 601C240 601 210 601 180 601C150 601 120 601 90 601C60 601 30 601 15 601L0 601Z" fill="#85ff8d" stroke-linecap="round" stroke-linejoin="miter"></path></svg>